# xmcd
#
# Track frame offsets:
#	150
#	23713
#	32459
#	48416
#	51856
#	73815
#	84007
#	101783
#	112809
#	118207
#	146085
#	149239
#	162762
#	179429
#	204316
#	215784
#	233253
#	238217
#	258112
#	266289
#
# Disc length: 3848 seconds
#
# Revision: 1
# Processed by: cddbd v1.4PL0 Copyright (c) Steve Scherf et al.
# Submitted via: EasyCDDAExtractor 5.0.6
#
DISCID=1b0f0614
DTITLE=Zither Manä and H.H. Babe - Endzeit für Götter
DYEAR=1998
DGENRE=Blues
TTITLE0=Alpara
TTITLE1=5 Minuten Später
TTITLE2=Götter
TTITLE3=Conference
TTITLE4=Konzert f. Klavier und Orchester C-Dur KV 467
TTITLE5=Zufriedenheit
TTITLE6=Im Trachtenheim
TTITLE7=Am Waldesrand
TTITLE8=Conference
TTITLE9=Waltzing Mathilda
TTITLE10=Conference
TTITLE11=Herbstimpressionen
TTITLE12=Grabinschriften
TTITLE13=Idyl 23
TTITLE14=Freindal kennst Du das Haus
TTITLE15=Sogta
TTITLE16=Conference
TTITLE17=Weile an dieser Quelle
TTITLE18=Conference
TTITLE19=Endzeit
EXTD=
EXTT0=
EXTT1=
EXTT2=
EXTT3=
EXTT4=
EXTT5=
EXTT6=
EXTT7=
EXTT8=
EXTT9=
EXTT10=
EXTT11=
EXTT12=
EXTT13=
EXTT14=
EXTT15=
EXTT16=
EXTT17=
EXTT18=
EXTT19=
PLAYORDER=
